<?xml version="1.0" standalone="no"?>
<!DOCTYPE svg PUBLIC "-//W3C//DTD SVG 20010904//EN"
 "http://www.w3.org/TR/2001/REC-SVG-20010904/DTD/svg10.dtd">
<svg version="1.0" xmlns="http://www.w3.org/2000/svg"
 width="800.000000pt" height="800.000000pt" viewBox="0 0 800.000000 800.000000"
 preserveAspectRatio="xMidYMid meet">

<g transform="translate(0.000000,800.000000) scale(0.100000,-0.100000)"
fill="#000000" stroke="none">
<path d="M3000 7756 c0 -2 7 -7 16 -10 8 -3 12 -2 9 4 -6 10 -25 14 -25 6z"/>
<path d="M2890 7705 c-25 -13 -40 -24 -35 -24 6 0 30 11 55 24 25 13 41 24 35
24 -5 0 -30 -11 -55 -24z"/>
<path d="M5225 7655 c33 -19 69 -45 81 -58 14 -16 26 -22 39 -17 20 7 25 3
-119 85 -25 14 -48 25 -53 25 -4 0 19 -16 52 -35z"/>
<path d="M2751 7633 c-68 -37 -81 -48 -65 -53 13 -5 23 -1 32 12 8 10 38 33
68 49 30 17 54 33 54 35 0 6 -1 6 -89 -43z"/>
<path d="M5490 7457 c-30 -5 -48 -12 -40 -15 8 -2 66 -55 128 -116 92 -90 109
-112 95 -118 -10 -4 6 -4 35 -1 32 3 58 1 66 -6 9 -7 27 -8 51 -3 l37 7 -73
65 c-83 74 -157 134 -209 171 -32 24 -39 25 -90 16z"/>
<path d="M2370 7377 c-58 -47 -125 -105 -148 -130 l-44 -44 31 -5 c18 -3 31 0
31 6 0 6 5 4 10 -4 6 -10 10 -11 10 -2 0 7 14 12 38 12 34 0 46 9 152 115 110
111 116 116 150 111 31 -5 32 -4 11 5 -14 5 -50 12 -80 15 l-56 6 -105 -85z"/>
<path d="M2035 7054 c-112 -129 -256 -333 -324 -461 -6 -13 51 41 126 118 76
77 140 145 142 151 2 5 17 -5 33 -24 17 -19 12 -9 -11 22 -41 56 -39 70 8 52
19 -7 35 5 119 90 78 80 101 98 126 99 l31 1 -28 8 c-15 5 -56 12 -91 15 l-63
7 -68 -78z"/>
<path d="M5805 7115 c-42 -9 -51 -13 -30 -14 24 -1 50 -21 129 -100 95 -95
100 -99 128 -89 38 13 46 4 22 -25 -11 -12 -26 -31 -34 -42 -14 -19 -14 -19 6
-3 19 17 24 14 162 -126 78 -79 142 -142 142 -140 0 9 -59 109 -117 196 -69
105 -159 223 -235 306 -52 58 -62 60 -173 37z"/>
<path d="M2298 7093 c7 -3 16 -2 19 1 4 3 -2 6 -13 5 -11 0 -14 -3 -6 -6z"/>
<path d="M4020 6870 c-9 -6 -10 -10 -3 -10 6 0 15 5 18 10 8 12 4 12 -15 0z"/>
<path d="M5989 6803 c-13 -16 -12 -17 4 -4 9 7 17 15 17 17 0 8 -8 3 -21 -13z"/>
<path d="M1620 6405 c-7 -9 -10 -18 -6 -22 3 -3 6 -1 6 6 0 6 10 16 23 21 15
6 17 9 6 9 -9 1 -22 -6 -29 -14z"/>
<path d="M6378 6413 c7 -3 16 -2 19 1 4 3 -2 6 -13 5 -11 0 -14 -3 -6 -6z"/>
<path d="M3135 6001 c25 -6 27 -9 13 -15 -10 -5 -15 -12 -12 -17 3 -5 1 -9 -5
-9 -5 0 -36 -26 -69 -58 l-59 -58 35 -23 c34 -22 52 -28 117 -35 135 -15 198
-21 249 -21 l60 0 42 110 42 110 -56 6 c-90 10 -390 18 -357 10z"/>
<path d="M4646 5999 c-82 -5 -151 -10 -153 -13 -3 -3 14 -55 38 -117 l43 -112
80 7 c45 4 101 9 126 12 25 2 65 6 90 8 56 5 105 20 137 42 l25 16 -77 76
c-72 72 -75 77 -53 83 30 9 -70 8 -256 -2z"/>
<path d="M3672 5828 c-16 -35 -93 -197 -172 -362 -78 -164 -138 -301 -133
-306 4 -4 125 -53 268 -110 143 -57 263 -106 267 -109 5 -4 4 -117 -2 -251 -7
-178 -13 -246 -22 -251 -7 -5 -104 -45 -215 -91 -112 -45 -201 -83 -199 -85 1
-2 18 2 36 8 27 10 35 9 44 -3 6 -8 27 -18 46 -21 24 -5 30 -4 20 3 -10 6 14
9 75 9 50 -1 144 4 210 10 86 7 156 7 245 -1 69 -6 162 -10 208 -10 45 1 80
-3 78 -7 -9 -13 48 1 66 16 11 10 25 12 40 8 59 -18 -3 10 -188 85 l-202 82
-7 232 c-4 127 -6 240 -4 251 3 15 62 42 258 121 140 56 262 106 270 111 18
12 15 20 -121 303 -51 107 -118 247 -148 311 -30 64 -56 116 -58 114 -1 -1 31
-139 73 -305 42 -166 73 -305 70 -309 -10 -9 -902 -7 -911 2 -5 4 26 145 67
313 42 167 75 304 74 304 -2 0 -16 -28 -33 -62z"/>
<path d="M5584 5368 l-19 -23 23 19 c21 18 27 26 19 26 -2 0 -12 -10 -23 -22z"/>
<path d="M2430 5376 c0 -2 8 -10 18 -17 15 -13 16 -12 3 4 -13 16 -21 21 -21
13z"/>
<path d="M2627 5153 c39 -4 53 -16 222 -185 123 -123 180 -187 176 -197 -4
-11 0 -10 15 4 l21 19 -108 100 c-59 56 -146 138 -193 183 -82 79 -87 82 -130
81 l-45 -1 42 -4z"/>
<path d="M5192 4999 c-95 -89 -169 -166 -165 -172 3 -5 1 -7 -4 -4 -6 4 -18
-2 -27 -12 -15 -17 -15 -19 1 -38 10 -10 15 -14 11 -8 -4 6 73 92 175 197 169
173 185 187 222 191 l40 4 -41 1 c-40 2 -46 -2 -212 -159z"/>
<path d="M4770 4520 c0 -5 5 -10 11 -10 5 0 7 5 4 10 -3 6 -8 10 -11 10 -2 0
-4 -4 -4 -10z"/>
<path d="M3235 4498 c-19 -23 -19 -23 0 -5 18 16 20 16 32 -5 7 -13 12 -18 13
-12 0 5 -6 18 -13 28 -12 16 -14 16 -32 -6z"/>
<path d="M4790 4496 c0 -2 8 -10 18 -17 15 -13 16 -12 3 4 -13 16 -21 21 -21
13z"/>
<path d="M1636 4217 c3 -10 9 -15 12 -12 3 3 0 11 -7 18 -10 9 -11 8 -5 -6z"/>
<path d="M6326 4098 c-21 -38 -74 -101 -130 -157 l-95 -94 -6 29 c-12 55 -13
49 -8 -51 3 -55 7 -101 8 -103 8 -10 198 284 249 386 36 72 25 66 -18 -10z"/>
<path d="M1696 4098 c34 -66 139 -235 188 -303 l51 -70 7 50 c7 55 8 150 1
102 -4 -26 -7 -24 -100 65 -52 51 -109 114 -126 141 -35 55 -45 61 -21 15z"/>
<path d="M1952 3930 c0 -14 2 -19 5 -12 2 6 2 18 0 25 -3 6 -5 1 -5 -13z"/>
<path d="M4158 3853 c6 -2 18 -2 25 0 6 3 1 5 -13 5 -14 0 -19 -2 -12 -5z"/>
<path d="M3940 3843 c19 -3 45 -14 58 -26 23 -21 24 -22 38 -3 7 10 30 22 51
26 25 5 1 8 -72 7 -60 0 -94 -2 -75 -4z"/>
<path d="M2351 3504 c0 -11 3 -14 6 -6 3 7 2 16 -1 19 -3 4 -6 -2 -5 -13z"/>
<path d="M2366 3460 c9 -36 92 -234 107 -252 13 -17 148 -105 241 -158 l60
-34 -118 115 c-66 63 -134 130 -152 149 -98 104 -114 123 -114 133 -1 7 -7 26
-15 42 -13 25 -14 26 -9 5z"/>
<path d="M5641 3409 c-7 -20 -77 -98 -185 -205 -167 -168 -171 -173 -114 -141
33 17 96 57 141 87 l81 55 49 113 c27 62 47 115 44 118 -3 3 -10 -9 -16 -27z"/>
<path d="M5244 3014 c-18 -14 -18 -15 4 -4 12 6 22 13 22 15 0 8 -5 6 -26 -11z"/>
<path d="M2780 3016 c0 -2 7 -7 16 -10 8 -3 12 -2 9 4 -6 10 -25 14 -25 6z"/>
<path d="M1013 2428 c-12 -16 -543 -1064 -543 -1072 0 -4 87 -5 192 -4 l193 3
80 147 80 148 145 0 145 0 34 -98 c18 -53 42 -121 53 -149 l19 -53 196 0 c152
0 194 3 190 13 -9 23 -247 743 -300 907 l-54 165 -210 3 c-161 2 -213 -1 -220
-10z"/>
<path d="M1997 2433 c-3 -5 -15 -89 -27 -188 -33 -275 -99 -815 -105 -858 l-5
-37 182 2 183 3 22 230 c12 127 26 247 30 269 l8 39 169 -272 170 -271 171 0
171 0 18 298 c9 163 21 358 26 432 5 74 12 186 16 248 l6 112 -168 -2 -169 -3
-17 -175 c-9 -96 -17 -202 -17 -235 -1 -33 -5 -66 -9 -73 -6 -8 -62 71 -168
235 l-160 248 -161 3 c-89 1 -164 -1 -166 -5z"/>
<path d="M3136 2428 c-2 -7 -11 -157 -20 -333 -23 -447 -35 -664 -40 -707 l-4
-38 173 0 173 0 6 178 c4 97 11 290 16 427 5 138 11 302 12 365 l3 115 -158 3
c-121 2 -158 0 -161 -10z"/>
<path d="M3585 2428 c-2 -7 -9 -188 -14 -403 -6 -214 -13 -454 -17 -532 l-6
-143 181 0 181 0 2 138 c1 75 2 165 2 199 0 35 3 59 6 55 4 -4 24 -47 46 -96
21 -49 59 -135 84 -190 l45 -101 111 -3 111 -3 15 38 c8 21 46 109 84 195 l69
158 6 -193 c4 -105 7 -193 8 -194 0 -2 82 -3 181 -3 l180 0 -5 73 c-5 69 -13
245 -36 752 -5 132 -12 246 -14 253 -3 9 -44 12 -160 12 l-155 0 -66 -137
c-36 -76 -99 -211 -141 -300 -42 -90 -79 -163 -82 -163 -3 0 -64 122 -135 271
-72 148 -138 283 -148 299 l-18 30 -155 0 c-116 0 -157 -3 -160 -12z"/>
<path d="M5295 2428 c-208 -634 -335 -1019 -353 -1065 -3 -10 39 -13 191 -13
176 0 196 2 202 18 28 72 95 262 95 271 0 8 45 11 148 11 l148 0 73 -137 c41
-76 78 -144 84 -150 7 -10 59 -13 198 -13 104 0 189 3 189 6 0 8 -531 1056
-543 1072 -7 9 -63 12 -219 12 -158 0 -210 -3 -213 -12z"/>
<path d="M6220 2435 c0 -3 96 -114 213 -246 116 -133 218 -250 225 -260 11
-16 -6 -52 -143 -293 -85 -151 -155 -277 -155 -280 0 -3 85 -6 188 -6 l189 0
73 152 c59 124 75 149 84 137 6 -9 60 -77 120 -152 l110 -137 188 0 c103 0
188 1 188 3 0 2 -112 129 -248 282 l-248 278 142 258 c78 142 139 261 136 264
-3 3 -81 5 -172 5 -122 0 -170 -3 -178 -12 -5 -7 -38 -69 -72 -137 l-63 -125
-28 35 c-15 19 -65 79 -111 134 l-83 100 -178 3 c-97 1 -177 0 -177 -3z"/>
<path d="M605 1160 c-92 -15 -135 -42 -135 -85 0 -37 43 -62 145 -86 52 -12
102 -27 112 -34 44 -33 -77 -42 -229 -19 -36 6 -38 5 -38 -20 0 -42 30 -51
180 -51 117 0 141 3 182 22 47 22 64 48 56 89 -5 25 -62 51 -153 70 -94 19
-122 31 -107 46 9 9 42 10 187 5 36 -2 40 0 40 22 0 18 -7 26 -27 32 -47 12
-162 17 -213 9z"/>
<path d="M7115 1164 c-131 -17 -202 -49 -230 -105 -36 -68 13 -153 102 -179
61 -18 232 -24 308 -11 125 22 185 69 185 147 0 60 -43 109 -114 128 -53 15
-199 27 -251 20z m164 -75 c36 -13 51 -35 51 -78 0 -61 -76 -98 -180 -88 -72
6 -106 23 -121 59 -17 42 -2 79 41 100 41 21 159 24 209 7z"/>
<path d="M1686 1145 c-14 -37 3 -45 90 -45 l84 0 0 -114 c0 -126 0 -126 77
-126 62 0 63 1 63 126 l0 113 88 3 c85 3 87 3 87 28 l0 25 -241 3 c-209 2
-243 0 -248 -13z"/>
<path d="M3020 1050 c0 -107 1 -112 26 -135 43 -40 89 -50 229 -50 142 0 198
12 242 49 27 24 28 27 28 133 l0 108 -70 0 -69 0 3 -87 c1 -48 -2 -95 -8 -106
-22 -42 -138 -56 -201 -24 l-35 17 -5 100 -5 100 -67 3 -68 3 0 -111z"/>
<path d="M4455 1148 c-3 -8 -4 -72 -3 -144 l3 -129 185 0 c209 0 264 12 316
66 23 24 29 39 29 75 0 39 -5 50 -32 74 -54 49 -118 62 -315 67 -147 4 -179 3
-183 -9z m300 -59 c75 -20 103 -68 70 -116 -24 -34 -79 -47 -192 -44 l-43 1 0
85 0 85 63 0 c34 0 80 -5 102 -11z"/>
<path d="M5859 1148 c-4 -108 4 -274 14 -280 14 -9 73 -10 105 -2 22 6 23 8
20 148 l-3 141 -67 3 c-50 2 -68 0 -69 -10z"/>
</g>
</svg>
